<svg xmlns="http://www.w3.org/2000/svg" viewBox="0 0 1198 415.52">
    <defs>
        <style>
            .main {
            fill: #FFE500;
            }
        </style>
    </defs>
    <g id="Layer_2" data-name="Layer 2" class="main">
        <g id="Layer_1-2" data-name="Layer 1">
            <path
                d="M182,2C163.87,19,87.37,18.22,75.59,2c15.06,17.88-2.7,29.81-11.42,23.36,8.93,6.46,35.43,8.47,36.62,1.21C101.73,31.72,87,41.65,64,59.17,41.76,75.77,11.21,100,0,112.24c12.6-9.63,25.85-9.45,33.47-3.28,7.64,6.56,9.63,19.11.18,43.35C42.09,125,71.19,89.25,93.3,67.08c23.06-23.48,39.13-33.4,43.39-39.42-11.44,7.35,15.05,9.16,36.56,1C151.41,36.14,166.55,19.44,182,2Z" />
            <path
                d="M208.52,45.93c-11.76,11.2-12.08,11.16-.44,0-11.55,8.77-11.07,5.69-1.72-8.22-11.31,11.06-12.16,9.16-5.93-4.69-10,12.44-12.28,11.52-9.92-1.74-10.39,13-17.17,14-23.85,4.68-5.28,14-13.25,18.91-26.8,14.57,0,13.45-7.58,22.68-29.87,26.88,7.38,13.39,1.78,24.87-25.12,42.81,18.72,5,17.63,12.43-7.68,49,26.25-13.4,30.18-11.28,13.4,36.84,25.64-39.51,29.06-40.18,14.26,3.6,22.27-45.73,25.86-47.09,16.74-11.35,17.53-44.64,21.13-46.92,17.91-23.74,7.52-30.1,7.78-30,.38.21,7.3-29.26-4.68-6.24-18.89,46.4,7.13-26.35,16.82-33.08,24.79-28.64,7.9,5.07,14.08,21.3,12.59,55.56,1.41-38.81,25.51-107,44.85-146.5,20.44-42.88,36.12-57,45.92-66.47C227.59,49.33,202.88,47.22,215.37,34,203.5,47,196.55,57.23,208.52,45.93Zm-43.27,71.53c-4.19-3.63-7.46-1.1-14.82,14.56.65-11.27-2.12-10.72-12.24,2.33,5.31-15.22,3.94-16.65-5.43-9.71,9-13.86,9.56-17.11,3.33-17.18,9.72-9.18,12.11-13.92,10.63-20.1,8-3.5,11.15-7.84,13.09-16,4,2.47,7.1-.11,12-8.65.54,5.94,3.22,5.39,10.54-2.19-2.7,8.12-1.24,9.63,6.52,4.46-6.27,8.88-6.66,12.16-.5,11.33-8.16,8-10.39,12.53-8.68,19.18C171.66,100.19,168.33,104.6,165.25,117.46Z" />
            <path
                d="M292.34,13c-6.09,16.16-30.63,15.61-33.83-.1,2.77,9.94-2.07,22.48-17,53.57-13.79,28.31-37.64,75.16-47.25,89.41,10.84-1.47,8.57,6.47-18,79,13.58-21.95,21.18-29,24.5-23.22,3.24,6.45,2.19,25.77-3.6,71.45,12.38-41.85,18.55-57.34,20.62-56.91,1.95,1.4-.21,18.72-7.35,64.77,10.16-44.39,15-60.72,16.47-60.62,1.32,1.12-.78,18.68-7.29,65.84,14.92-95.59,34.7-148.78,33.23-116.11.68-34.32-.54-34.39-5.62-1.81,1.24-33.84-.22-33.92-6.69-2.19,2.7-33.21,1.42-33.82-5.41-7.53,6.81-32,7.5-34.11,4.46-18.38,2.71-11.73,9.8-32.09,15.85-47.11,6.2-15.47,11.36-25.62,13.32-27.49-3.94,3.3,10.15,5,19.75,2-9.33,1.63,3.76-29.39,15-38.88-12.28,11.74-26,10.88-18.91-.56C277.43,49.37,287.6,27.9,292.34,13Z" />
            <path
                d="M346.1,13.16c-5.36,16.77-29.87,16.31-33.82-.08,2.85,10.41-.55,23.06-13.54,58.77-12,32.31-33.53,87.68-43,105.08,5.61-2.6,7.61.57,5.49,12.95-2.2,12.77-8.51,34.76-21.18,78.75,13.24-26.83,20.67-35.7,24.25-29.67,3.5,6.77,3.15,28.44-1.3,79.73,11.33-48.13,17-66.06,19.1-65.85,2,1.29.51,20.73-5.24,72.3,8.89-50.21,13.16-68.83,14.64-68.9,1.37,1.07-.06,20.69-5.07,73.15,12-106.78,29.3-167.62,29.27-131.31-.82-37.91-2-38-5.73-1.48-.22-37.53-1.67-37.59-6.82-1.79,1.31-37.07,0-37.75-5.75-7.84,5.48-36.21,6-38.66,3.69-20.86,2.23-13.31,8.36-36.58,13.6-53.68,5.37-17.64,9.85-29.1,11.71-31.23-3.73,3.8,10.41,5.19,19.79,1.67-9.15,2,1.88-32.61,12.44-42.7-11.48,12.78-25.22,12.07-18.9-.45C333.41,52,341.88,28.25,346.1,13.16Z" />
            <path
                d="M428,44.31c-15.77,14.13-21.51,10.21-24.56-8.22-10.88,18.27-18.4,21.15-27.81,7.1-3.08,20.92-10.19,30.81-25,24.9,3.38,23.17-2.07,39.88-23.18,56.43,10.21,22.57,7.93,41.22-15.8,91,20.17-3.1,22.31,7.7,3.16,89.76,13.21-24,20.87-32.29,24.89-26.25,4,6.56,4.28,27.42,1.25,73.48,11.92-43,19.46-62,25.26-66,5.76-3.42,9.8,8.17,13.62,39.24,5.34-46.11,9.7-69.22,14.93-81.46,5.22-11.85,11.32-12.82,19.84-5.55-2.88-61.56,2.84-79.23,22.28-101.24-12.65-23-10.53-40.31,3.88-65C423.49,77.17,421.42,66.09,428,44.31ZM388.64,172.76c-4.55-4.75-7-.07-11.33,26.79-1.12-18.11-3.41-16.73-10.63,8.29,2.68-26,1.1-27.73-6.74-11.64,6-26.09,5.61-31.12-.53-28.18,7.48-19.37,8.74-27.8,6.26-38.19,7-9,9.21-17,9.46-30.68,4.28,3.52,6.74-1.18,9.48-15.27,1.76,9.7,4.05,8.28,9-4.41-.87,12.91.72,14.77,6.78,5.42-3.74,14.25-3.41,19.29,2.26,16.52-5.87,13.7-7.09,21.79-4.28,32.3C391.63,143.4,389.32,151.67,388.64,172.76Z" />
            <path
                d="M520.33,45.55C506.06,60.68,499.9,56.66,495,37.11c-9,19.47-16.15,22.94-27,7.85-.86,22.6-6.87,33.8-22.22,27.71,5.83,25.58,2.07,44-17.39,64.07,12.22,24.57,11.81,44.75-8,103,19.91-6.05,23.23,5.39,10.05,98C442,309.18,449.05,299.13,453.57,305c4.48,6.48,6.45,28.91,6.8,78.78,8.86-48.27,14.91-69.72,20.44-74.84,5.51-4.51,10.5,7.31,16.73,39.55,1.81-49.6,4.26-74.72,8.48-88.32,4.24-13.19,10.25-14.87,19.38-8.19-8.1-64.46-4.12-84.12,13.2-108.39C523.8,120.14,524.19,101.39,536,75,519.31,80.44,516.05,68.6,520.33,45.55Zm-26.53,139c-5-4.7-7,.52-9,29.84-2.7-19.34-4.84-17.72-9.93,10.07.47-28.28-1.28-30.11-7.72-11.84,3.72-28.91,2.88-34.32-3-30.58,5.74-21.77,6.19-31,2.75-42.16,6.09-10.29,7.56-19,6.42-34,4.61,3.64,6.61-1.61,7.88-17,2.74,10.48,4.89,8.8,8.49-5.07.46,14,2.22,15.89,7.3,5.61-2.26,15.48-1.44,20.91,3.93,17.67-4.47,15-4.9,23.8-1.11,34.9C494.1,152.78,492.59,161.89,493.8,184.58Z" />
            <path
                d="M610.94,38.15c6.66,10.28,10.22,8.12,14.55-5.44,2,13.7,4.08,14.39,8.5,1.69-.76,14.25,1,16.31,7,5.1-3.06,14.32-1.71,17.75,5.33,9-4.92,13.93-4.07,18.71,3.5,13.81-7,8.79,19.64,8.43,37-.47-19-.59-21.1-11.84-8.93-30.74-17.53,8.5-21.16,1.43-13.47-17.48-15.1,12.84-19.75,9.43-17.95-10C635.13,19.76,629.72,18.82,624.31,0,616,18.76,608.56,20.88,593.37,7.41c2.07,20.1-3.3,29.06-22.38,24.11,10.73,22.42,9.08,40.53-10.67,65.32,17.73,27.88,20.76,48.75,5.28,131.13,11.69-8.4,18.82-6,22.9,11.16,4,18,5,50.76,3.42,121.26,10.28-45.92,17.22-61.46,23.49-55,6.27,7.69,11.88,37.38,19.38,110.12,2-73.18,4.56-101.4,8.85-105.73,4.34-2.87,10.41,18.14,20.75,76.95-4.4-71.28-4.95-100.86-1.95-110.49,3.1-8.52,9.75,2.9,22.09,39.46-8.78-56.12-11.81-81.83-10.24-94,1.66-11.5,7.92-9.44,19.92,4.8-21.34-69.07-19.69-79.53.16-84.66-21-14.14-48.82-13.58-40.15,1.67-8.84-7.67-9.47-3.39-1.66,29.87-9.24-19.34-10.39-16.38-4.48,25.84-8.71-31.09-10.3-29.4-7.24,17.79-7.14-41-9.16-40.49-9.84,6.48-6.88-47.2-10.55-49.17-17.8-19,.3-48.17-2.2-54.51-10.87-48.8,5.3-33.26,4.16-44.72-3.51-58.67,7.65-13.35,8.13-24.15,3.11-40.49C609.91,60.16,612,53.57,610.94,38.15Z" />
            <path
                d="M736.5,39.52c-8.57,19.29-12,21.88-14,5.32-2.31,21.19-3.1,30.08-5.06,21.51,1.81,16.82,1.68,16.82-.17,0,1.9,17-1.56-8.95-3.39-26.58,2.26,19.63-22.35,20.21-33.52.29,5.41,9.72,10.63,35.19,17,102,3,32.69,6.1,75,8.21,119.22,2.07,43.55,3.18,89.06,1.62,112,3.05-47.09,12-66.79,21.26-68.55,9.31-1,19,16,24,61-5.07-47.37-12-110.82-16.7-153-4.87-43.69-7.58-66.09-7.2-66.39-2.12-11.62-2.52-19.74-1.75-33-.1,1.38.86-4,4.14-18.33-.08,8.62,2.13,6.6,9-6.2-2.6,12.75-.75,12.61,7.42-.35-4.43,12.79-3,12.68,5.87-.28-8.17,11.74-15.18-33.6-8.1-48.76-7.41,19.5-8.47,19.56-4.11.06C734.77,59,733.6,59.05,736.5,39.52Z" />
            <path
                d="M821.67,53.55c-10.14,12.51-15.53,6.8-18.66-13.28-6,16.22-11.43,14.56-20.19-4.06-2.83,18.56-8.25,22.59-23.28,8.55,6.2,22.06,4.21,33.45-12.31,29C761,98.72,762.9,116,750.59,138.17c18.5,21.18,23.9,38.44,21.13,99,8.27-6.58,14.21-5.17,19.33,7,5.13,12.59,9.44,36,14.76,82.37,3.74-30.4,7.66-41.64,13.27-37.84,5.65,4.36,13,23.75,24.59,67.4-3.72-46.2-3.89-66.47-.38-71.42,3.59-4.37,10.85,6.58,23.76,36.14-17.82-83.7-15-90.33,8.09-68.25-22.95-58.94-23.07-70.25-6.6-74.11-19.77-13.44-44.14-9.78-35,7.12-8.82-12-9-9.12,0,17.89-9.85-19.23-10.77-17.35-3.6,13.12-9.72-25.61-11.31-24.87-7.09,6-9.16-29.9-11.68-31-11.86-6.59-5.35-31.82-7.59-35.41-10.69-22.76-1.35-26.25-3-31.78-7.58-30.56,3.24-9.13,52.17-15.61,69.66-10.85C844.73,146.2,840.08,126,855,123.57,836.49,113.1,832.8,99.82,839,79,824.84,84.25,820,74.51,821.67,53.55ZM785.4,84.81c4.34.52,6.18-.6,7.73-4.38,3.19,3.51,5.46,4.35,9.47,3.33.18,4.49,2.09,7.23,8.18,11.35-3.16,2-2.22,4.61,4.42,11.88-5.69-3.92-28.32-2.14-32.13,2.8,3.34-8.39,3.13-11.07-.77-12.58C786.43,92.21,787.13,89.29,785.4,84.81Z" />
            <path
                d="M893.9,51.1c.94,14.89.62,14.92-.44,0-1.3,12.05-4.55,8.15-10-9.53.87,14.48-2.26,12.37-10.29-5.18,3.07,16,0,15.55-11.26-1.54,3,17-.93,20.58-18.06,7.93,10.83,20.05,10.66,30-6.6,26.43C854.61,91.4,858.3,106.3,847.28,127c20.88,18.91,27.52,33.91,27.37,90,7.8-7.26,13.55-6.76,18.76,3.6,5.22,10.75,9.9,31.36,16,73.08,2.32-28.64,5.37-39.35,10.26-36.61,4.93,3.27,11.7,20,22.6,58.36-5.73-40.88-7.54-57.86-5.92-60.34,1.7-1.86,6.82,10.78,16.77,43.58-8.3-38.74-11.72-55.84-11.21-60.39.59-4.06,5.09,4.44,14.4,28.12-18.45-63.14-18.62-67.28-4.12-41.94-16.33-36.46-16.05-36.53.4-.16-16.28-35.5-5.86-1.61,17.64,63.9-11.75-33.14-10.14-49.38-1.83-53.42,8.41-3.64,23.54,4.91,41.33,30.73-18-29.85-48.63-108.38-66.5-153.59-19-49.73-25.31-66.15-20.95-76.1-7.75,16-32.47,17.69-33.75.9C889.58,52.46,895,66.25,893.9,51.1Zm33.22,95.68c-6.31-1.39-6.31,3.21,1.13,25.37-8.72-12.49-10.36-10.69-6.77,12-8.67-21.14-11.23-22.34-11.78-6.84-5.53-23.4-8.3-27.5-12.81-23.54-1.49-18.1-4.2-24.85-11.61-32.39,2.5-8.69.73-15.4-6.53-27,5.92,1.86,5.76-2.72.45-15.3,7,7.72,8.58,5.85,6.71-5.49,6.51,11,9.19,12.17,10.46,3.91,4,12.35,6.9,16.44,11.24,13.44,1.09,11.74,3.83,18.28,11.33,24.79C916.79,124.26,918.51,131.23,927.12,146.78Z" />
            <path
                d="M950.56,12.88c2.41,15.46-22.14,16-33.83.11,4.65,10.2,13.24,22.52,27.83,54.39,13.48,29.11,33,77.77,33.7,96.74,3-5.09,6.5-3.79,11.81,5.95,5.37,10.14,12.58,28.73,24.33,67.42-3-28.21-2-38.77,3.85-37.66,5.93,1.63,16.7,14.94,35.09,46.23-12.07-35.7-16.72-49.73-14.84-51.11,2-.76,10.51,11.12,27.33,41.72C1051.84,204,1046,191,1047.22,190c1.37-.48,9.9,11.07,27.08,40.11-33.64-61.51-55.62-106.26-35.84-85.81-20.49-20.06-21.75-20-5.42,2.31-20-20.76-21.53-20.74-6.48,2.71-18.76-22-20.68-22.47-8.84-1.43-15.31-24.5-16.89-26.54-8.43-14.39-5.51-9.18-14.41-26.47-21-39.46-6.74-13.39-11.19-22.47-10.85-24.31-.71,3.47,13.33,1.5,19.67-2.5-6.78,3.33-21.91-22.52-18.65-31.27-2.14,10.36-15.87,11.38-18.92.68C962.78,46.92,951.31,27.54,950.56,12.88Z" />
            <path
                d="M1049.71,34.76c-6.15,8.76-14.41,8.25-29.75-4,1.34,12.57-3.54,15.34-22.73,6.41,11.7,14.64,11.85,21.1-6.45,19.56,19.87,15.11,25,24.29,16.52,41.07,22.84,10.66,31.15,18.73,36.48,57.88,14.25-12.94,23-9.53,41.46,39.64.74-39.3,9.16-38.25,35.63-4.18-12-47.83-6.71-49.64,18.62-40.26-22-32.55-22.24-39.11-3.33-45.62-25.43-13.62-30.9-23.82-23.5-35.69-22.75-2.65-30.93-10.64-32.18-22.38C1066.76,51.4,1057.81,47.54,1049.71,34.76Zm37.38,63.68c-6.29.1-5.8,2.91,2.8,14.92-9.23-6.1-10.51-4.89-5.07,8.49-9.57-11.35-12.07-11.71-10.9-1.22-7.38-13.67-10.55-15.72-14.24-11.88-3.53-11.78-7-15.79-15.16-20.07,1.08-6.55-1.4-10.73-9.74-17.86,6.12.81,5.65-2-.86-9.82,7.89,4.73,9.14,3.44,5.66-3.78,7.51,6.73,10,7.07,9.93,1.58,5.42,7.47,8.58,9.54,12.25,7.09,2.62,7.21,6.08,11.12,14.23,14.36C1075,86.06,1077.56,90.42,1087.09,98.44Z" />
            <path
                d="M1129.86,28.14c1,8.07-.13,8.32-4.56.2-1.36,8.39-3.9,9.56-12.12,3,5.66,9,7.5,11.21,2.72,8.72,7.4,5.4,7.28,5.43-.18,0,7.64,5.33-4.34-1.93-13.17-10.74,9.68,8.46-14.88,11.22-33.66,1.42,7.74,6.6,27.07,16.74,48.9,37.32,21.24,19.49,45,49.41,47.79,70.21-7.41-34.89,17.8-49.48,32.42-36.9-14.73-17.54-51.2-42.12-49.5-41.06a22.39,22.39,0,0,1-9.36-7.88c.23.39-.09-1.26-.83-5.59,2.3,2.29,4,1.19,7.19-3.11,1,3.61,2.73,3,7.27-1.31-.87,3.71.5,3.26,5.74-1.05-4.4,4.37-24.91-5.18-24.52-13.45C1133.84,35.93,1132.8,36.15,1129.86,28.14Z" />
        </g>
    </g>
</svg>