<svg xmlns="http://www.w3.org/2000/svg" viewBox="0 0 645.81 207.58">
    <defs>
        <style>.cls-1{fill:#FFE500;}</style>
    </defs>
    <g id="Layer_2" data-name="Layer 2">
        <g id="Layer_2-2" data-name="Layer 2">
            <path class="cls-1"
                d="M0,161.45H11.53V173H0Zm34.6-57.66H23.06V92.26H11.53V69.19H23.06V80.73H34.6V92.26H46.13v11.53H69.19v11.53h34.6v11.54h11.54v11.53H80.73V126.86H57.66V115.32H34.6ZM11.53,149.92H34.6V138.39H69.19v11.53h46.14V138.39h11.53v23.06H80.73V173H46.13V161.45H11.53Zm34.6-69.19H34.6V69.19H23.06V46.13H34.6V57.66H46.13V69.19H69.19V80.73h34.6V92.26h23.07v11.53h11.53v34.6H126.86V126.86H115.33V115.32H103.79V103.79H69.19V92.26H46.13ZM34.6,34.6h69.19V46.13h23.07V57.66H115.33V69.19H103.79V57.66H80.73V46.13H34.6Zm92.26,0h11.53V46.13H126.86Z" />
            <path class="cls-1"
                d="M149.92,149.92h11.53V103.79H149.92V92.26h11.53V80.73h23.07V92.26h11.53v11.53H184.52v46.13h11.53v11.53H184.52V173H161.45V161.45H149.92ZM161.45,34.6h23.07V57.66H161.45Z" />
            <path class="cls-1"
                d="M219.11,149.92h11.53V103.79H207.58V92.26h11.53V80.73h23.07V92.26h23.06V80.73h23.07V92.26h23.06V80.73h23.07V92.26H357.5v11.53H346v46.13H357.5v11.53H346V173H334.44V161.45H322.9V103.79H299.84v46.13h11.53v11.53H299.84V173H288.31V161.45H276.77V103.79H253.71v46.13h11.53v11.53H253.71V173H230.64V161.45H219.11Z" />
            <path class="cls-1"
                d="M380.56,149.92H392.1V103.79H369V92.26h11.53V80.73h23.07V92.26h11.53v57.66h23.07V103.79H426.7V92.26h11.53V80.73h23.06V92.26h11.53v11.53H461.29v46.13h23.07v11.53H472.82V173H449.76V161.45H426.7V173H403.63V161.45H380.56Z" />
            <path class="cls-1"
                d="M495.89,149.92h11.53V46.13H519V34.6h11.54V149.92H542v11.53H530.49V173H507.42V161.45H495.89Z" />
            <path class="cls-1"
                d="M553.55,149.92h11.53V103.79h11.53V92.26h11.54v57.66h23.06V92.26H588.15V80.73h34.59V92.26h23.07v11.53H634.28v46.13h11.53v11.53H634.28V173H611.21V161.45H599.68V173H576.61V161.45H553.55Z" />
            <rect class="cls-1" y="196.05" width="645.81" height="11.53" />
            <rect class="cls-1" width="645.81" height="11.53" />
        </g>
    </g>
</svg>